<mxfile host="app.diagrams.net" modified="2021-11-26T05:23:37.812Z" agent="5.0 (Windows NT 10.0; Win64; x64) AppleWebKit/537.36 (KHTML, like Gecko) Chrome/96.0.4664.45 Safari/537.36" etag="d9D4iTkpWJg1qz09wH7z" version="15.4.3" type="github">
  <diagram id="e9Jz0P7zMv7udkDMBi1K" name="Page-1">
    <mxGraphModel dx="782" dy="436" grid="1" gridSize="10" guides="1" tooltips="1" connect="1" arrows="1" fold="1" page="1" pageScale="1" pageWidth="850" pageHeight="1100" math="0" shadow="0">
      <root>
        <mxCell id="0" />
        <mxCell id="1" parent="0" />
        <mxCell id="xHMNMmve11BIKyiXveKM-1" value="" style="rounded=1;whiteSpace=wrap;html=1;fillColor=#E6E6E6;shadow=1;" vertex="1" parent="1">
          <mxGeometry x="40" y="70" width="320" height="290" as="geometry" />
        </mxCell>
        <mxCell id="xHMNMmve11BIKyiXveKM-2" value="" style="rounded=1;whiteSpace=wrap;html=1;fillColor=#D4E1F5;shadow=1;" vertex="1" parent="1">
          <mxGeometry x="50" y="114" width="300" height="148" as="geometry" />
        </mxCell>
        <mxCell id="xHMNMmve11BIKyiXveKM-3" value="ESX host 1&lt;br&gt;(Bare metal server)" style="text;html=1;strokeColor=none;fillColor=none;align=center;verticalAlign=middle;whiteSpace=wrap;rounded=0;" vertex="1" parent="1">
          <mxGeometry x="147.5" y="74" width="105" height="30" as="geometry" />
        </mxCell>
        <mxCell id="xHMNMmve11BIKyiXveKM-4" value="Kubernetes node (VM)" style="text;html=1;strokeColor=none;fillColor=none;align=center;verticalAlign=middle;whiteSpace=wrap;rounded=0;" vertex="1" parent="1">
          <mxGeometry x="138.75" y="113" width="122.5" height="30" as="geometry" />
        </mxCell>
        <mxCell id="xHMNMmve11BIKyiXveKM-5" value="" style="rounded=1;whiteSpace=wrap;html=1;fillColor=#FFF4C3;shadow=1;" vertex="1" parent="1">
          <mxGeometry x="70" y="143" width="260" height="97" as="geometry" />
        </mxCell>
        <mxCell id="xHMNMmve11BIKyiXveKM-6" value="Benchmark Pod 1" style="text;html=1;strokeColor=none;fillColor=none;align=center;verticalAlign=middle;whiteSpace=wrap;rounded=0;" vertex="1" parent="1">
          <mxGeometry x="138.75" y="148" width="122.5" height="30" as="geometry" />
        </mxCell>
        <mxCell id="xHMNMmve11BIKyiXveKM-7" value="Container Network Interface (CNI)" style="rounded=1;whiteSpace=wrap;html=1;fillColor=#D5E8D4;shadow=1;" vertex="1" parent="1">
          <mxGeometry x="80" y="190" width="240" height="30" as="geometry" />
        </mxCell>
        <mxCell id="xHMNMmve11BIKyiXveKM-9" value="NIC" style="rounded=0;whiteSpace=wrap;html=1;fillColor=#E6E6E6;shadow=1;" vertex="1" parent="1">
          <mxGeometry x="160" y="330" width="80" height="20" as="geometry" />
        </mxCell>
        <mxCell id="xHMNMmve11BIKyiXveKM-10" value="" style="endArrow=classic;startArrow=classic;html=1;rounded=0;edgeStyle=orthogonalEdgeStyle;entryX=0.5;entryY=1;entryDx=0;entryDy=0;" edge="1" parent="1" target="xHMNMmve11BIKyiXveKM-7">
          <mxGeometry width="50" height="50" relative="1" as="geometry">
            <mxPoint x="199.5" y="330" as="sourcePoint" />
            <mxPoint x="199.5" y="280" as="targetPoint" />
          </mxGeometry>
        </mxCell>
        <mxCell id="xHMNMmve11BIKyiXveKM-8" value="IP in IP encapsulation" style="rounded=0;whiteSpace=wrap;html=1;fillColor=#FFFFFF;shadow=1;" vertex="1" parent="1">
          <mxGeometry x="126.25" y="276" width="147.5" height="20" as="geometry" />
        </mxCell>
        <mxCell id="xHMNMmve11BIKyiXveKM-11" value="" style="rounded=1;whiteSpace=wrap;html=1;fillColor=#E6E6E6;shadow=1;" vertex="1" parent="1">
          <mxGeometry x="460" y="70" width="320" height="290" as="geometry" />
        </mxCell>
        <mxCell id="xHMNMmve11BIKyiXveKM-12" value="" style="rounded=1;whiteSpace=wrap;html=1;fillColor=#D4E1F5;shadow=1;" vertex="1" parent="1">
          <mxGeometry x="470" y="114" width="300" height="148" as="geometry" />
        </mxCell>
        <mxCell id="xHMNMmve11BIKyiXveKM-13" value="ESX host 2&lt;br&gt;(Bare metal server)" style="text;html=1;strokeColor=none;fillColor=none;align=center;verticalAlign=middle;whiteSpace=wrap;rounded=0;" vertex="1" parent="1">
          <mxGeometry x="567.5" y="74" width="105" height="30" as="geometry" />
        </mxCell>
        <mxCell id="xHMNMmve11BIKyiXveKM-14" value="Kubernetes node (VM)" style="text;html=1;strokeColor=none;fillColor=none;align=center;verticalAlign=middle;whiteSpace=wrap;rounded=0;" vertex="1" parent="1">
          <mxGeometry x="558.75" y="113" width="122.5" height="30" as="geometry" />
        </mxCell>
        <mxCell id="xHMNMmve11BIKyiXveKM-15" value="" style="rounded=1;whiteSpace=wrap;html=1;fillColor=#FFF4C3;shadow=1;" vertex="1" parent="1">
          <mxGeometry x="490" y="143" width="260" height="97" as="geometry" />
        </mxCell>
        <mxCell id="xHMNMmve11BIKyiXveKM-16" value="Benchmark Pod 2" style="text;html=1;strokeColor=none;fillColor=none;align=center;verticalAlign=middle;whiteSpace=wrap;rounded=0;" vertex="1" parent="1">
          <mxGeometry x="558.75" y="148" width="122.5" height="30" as="geometry" />
        </mxCell>
        <mxCell id="xHMNMmve11BIKyiXveKM-17" value="Container Network Interface (CNI)" style="rounded=1;whiteSpace=wrap;html=1;fillColor=#D5E8D4;shadow=1;" vertex="1" parent="1">
          <mxGeometry x="500" y="190" width="240" height="30" as="geometry" />
        </mxCell>
        <mxCell id="xHMNMmve11BIKyiXveKM-18" value="NIC" style="rounded=0;whiteSpace=wrap;html=1;fillColor=#E6E6E6;shadow=1;" vertex="1" parent="1">
          <mxGeometry x="580" y="330" width="80" height="20" as="geometry" />
        </mxCell>
        <mxCell id="xHMNMmve11BIKyiXveKM-19" value="" style="endArrow=classic;startArrow=classic;html=1;rounded=0;edgeStyle=orthogonalEdgeStyle;entryX=0.5;entryY=1;entryDx=0;entryDy=0;" edge="1" parent="1" target="xHMNMmve11BIKyiXveKM-17">
          <mxGeometry width="50" height="50" relative="1" as="geometry">
            <mxPoint x="619.5" y="330" as="sourcePoint" />
            <mxPoint x="619.5" y="280" as="targetPoint" />
          </mxGeometry>
        </mxCell>
        <mxCell id="xHMNMmve11BIKyiXveKM-20" value="IP in IP encapsulation" style="rounded=0;whiteSpace=wrap;html=1;fillColor=#FFFFFF;shadow=1;" vertex="1" parent="1">
          <mxGeometry x="546.25" y="276" width="147.5" height="20" as="geometry" />
        </mxCell>
        <mxCell id="xHMNMmve11BIKyiXveKM-21" value="" style="endArrow=classic;startArrow=classic;html=1;rounded=0;edgeStyle=orthogonalEdgeStyle;exitX=0.5;exitY=1;exitDx=0;exitDy=0;" edge="1" parent="1" source="xHMNMmve11BIKyiXveKM-9">
          <mxGeometry width="50" height="50" relative="1" as="geometry">
            <mxPoint x="570" y="400" as="sourcePoint" />
            <mxPoint x="620" y="350" as="targetPoint" />
            <Array as="points">
              <mxPoint x="200" y="400" />
              <mxPoint x="620" y="400" />
            </Array>
          </mxGeometry>
        </mxCell>
      </root>
    </mxGraphModel>
  </diagram>
</mxfile>
